<svg xmlns="http://www.w3.org/2000/svg" width="22" height="22" viewBox="0 0 22 22"><defs><style>.a{fill:#4fa471;}</style></defs><path class="a" d="M297.52,294a4.478,4.478,0,0,0-3.848,6.771l-2.381,2.381a1,1,0,0,0,1.408,1.408l2.347-2.347A4.479,4.479,0,1,0,297.52,294Zm0,6.968a2.489,2.489,0,1,1,2.489-2.489A2.492,2.492,0,0,1,297.52,300.968Z" transform="translate(-280 -282.851)"/><path class="a" d="M18.563,1.719H17.445V.859a.859.859,0,0,0-1.719,0v.859h-3.91V.859a.859.859,0,0,0-1.719,0v.859H6.23V.859a.859.859,0,0,0-1.719,0v.859H3.438A3.441,3.441,0,0,0,0,5.156V18.563A3.441,3.441,0,0,0,3.438,22H9.066a.859.859,0,0,0,0-1.719H3.438a1.721,1.721,0,0,1-1.719-1.719V5.156A1.721,1.721,0,0,1,3.438,3.438H4.512V4.3a.859.859,0,0,0,1.719,0V3.438H10.1V4.3a.859.859,0,0,0,1.719,0V3.438h3.91V4.3a.859.859,0,0,0,1.719,0V3.438h1.117a1.721,1.721,0,0,1,1.719,1.719v5.156a.859.859,0,0,0,1.719,0V5.156A3.441,3.441,0,0,0,18.563,1.719Z"/></svg>