<svg xmlns="http://www.w3.org/2000/svg" width="14" height="15.73" viewBox="0 0 14 15.73"><defs><style>.a{fill:#b9b9b9;}</style></defs><g transform="translate(-3.1 -2)"><path class="a" d="M3.823,17.73a.757.757,0,0,1-.723-.787V2.787A.757.757,0,0,1,3.823,2H6.569a.757.757,0,0,1,.723.787.757.757,0,0,1-.723.787H4.546V16.944a.757.757,0,0,1-.723.787Z" transform="translate(0 0)"/><path class="a" d="M17.35,17.73H7.7a.787.787,0,1,1,0-1.573h8.842V3.573H8.508V13.09a.8.8,0,0,1-1.608,0V2.787A.8.8,0,0,1,7.7,2H17.35a.8.8,0,0,1,.8.787V16.944A.8.8,0,0,1,17.35,17.73Z" transform="translate(-1.053 0)"/><path class="a" d="M14.692,8.246H11.223a.723.723,0,0,1,0-1.446h3.469a.723.723,0,1,1,0,1.446Z" transform="translate(-1.288 -0.991)"/><path class="a" d="M14.692,11.846H11.223a.723.723,0,0,1,0-1.446h3.469a.723.723,0,1,1,0,1.446Z" transform="translate(-1.288 -1.734)"/><path class="a" d="M14.692,15.446H11.223a.723.723,0,0,1,0-1.446h3.469a.723.723,0,1,1,0,1.446Z" transform="translate(-1.288 -2.477)"/></g></svg>