<svg xmlns="http://www.w3.org/2000/svg" width="16.624" height="16.547" viewBox="0 0 16.624 16.547"><defs><style>.a{fill:#4fa471;stroke:#4fa471;}</style></defs><g transform="translate(-184.5 -362.365)"><g transform="translate(-1102.018 1.801)"><g transform="translate(1287.017 360.939)"><path class="a" d="M14.3,47.343a.386.386,0,0,0-.386.386v3.425a1.158,1.158,0,0,1-1.157,1.157H1.929A1.158,1.158,0,0,1,.772,51.154V41.1a1.159,1.159,0,0,1,1.157-1.157H5.354a.386.386,0,0,0,0-.772H1.929A1.931,1.931,0,0,0,0,41.1V51.154a1.931,1.931,0,0,0,1.929,1.929H12.753a1.931,1.931,0,0,0,1.929-1.929V47.728A.386.386,0,0,0,14.3,47.343Zm0,0" transform="translate(0 -37.41)"/><path class="a" d="M118.545.769a1.736,1.736,0,0,0-2.455,0l-6.882,6.882a.386.386,0,0,0-.1.17l-.905,3.267a.386.386,0,0,0,.475.475l3.267-.905a.386.386,0,0,0,.17-.1L119,3.677a1.738,1.738,0,0,0,0-2.455Zm-8.5,7.133,5.633-5.633L117.5,4.086l-5.633,5.633Zm-.363.728,1.451,1.451-2.008.556Zm8.767-5.5-.409.409-1.817-1.817.409-.409a.964.964,0,0,1,1.364,0l.453.453A.966.966,0,0,1,118.453,3.131Zm0,0" transform="translate(-104.016 0)"/></g></g></g></svg>