<svg xmlns="http://www.w3.org/2000/svg" width="7.648" height="7.649" viewBox="0 0 7.648 7.649"><defs><style>.a{fill:#de0000;}</style></defs><g transform="translate(-373.996 -46)"><g transform="translate(373.996 46)"><g transform="translate(0 0)"><path class="a" d="M17.334,13.221,14.82,15.742l-2.514-2.522a.767.767,0,1,0-1.085,1.085l3.057,3.057a.764.764,0,0,0,1.085,0l3.057-3.057a.767.767,0,0,0-1.085-1.085Z" transform="translate(-10.996 -12.996)"/></g><g transform="translate(7.648 7.649) rotate(180)"><path class="a" d="M6.338.225,3.824,2.746,1.31.225A.767.767,0,0,0,.225,1.31L3.281,4.366a.764.764,0,0,0,1.085,0L7.423,1.31A.767.767,0,0,0,6.338.225Z" transform="translate(0 0)"/></g></g></g></svg>