<svg xmlns="http://www.w3.org/2000/svg" width="20.644" height="15.568" viewBox="0 0 20.644 15.568"><defs><style>.a{fill:#5992d9;stroke:#5992d9;stroke-width:0.3px;}</style></defs><g transform="translate(0.15 -61.048)"><g transform="translate(0 61.206)"><path class="a" d="M14.916,65.38V61.713a.5.5,0,0,0-.274-.449.513.513,0,0,0-.528.033c-3.647,2.521-5.74,2.845-7.157,2.845H2.908A2.911,2.911,0,0,0,0,67.05v1.08a2.911,2.911,0,0,0,2.908,2.908H4.851l2.11,5.113a.508.508,0,0,0,.469.316.542.542,0,0,0,.2-.037.511.511,0,0,0,.278-.665L5.952,71.037h1c4.934,0,6.953,2.613,7.045,2.733a.508.508,0,0,0,.407.208.5.5,0,0,0,.158-.025.509.509,0,0,0,.349-.482V69.808a2.273,2.273,0,0,0,0-4.428Zm-13.9,2.75V67.05a1.891,1.891,0,0,1,1.89-1.89H4.685v4.86H2.908A1.891,1.891,0,0,1,1.018,68.13ZM13.9,72.246A10.663,10.663,0,0,0,6.953,70.02H5.7V65.16H6.953c1.454,0,3.539-.3,6.945-2.492Zm1.018-3.51V66.448a1.252,1.252,0,0,1,0,2.289Z" transform="translate(0 -61.206)"/><path class="a" d="M419.8,202.693h-1.99a.511.511,0,1,0,0,1.022h1.99a.511.511,0,0,0,0-1.022Z" transform="translate(-399.967 -196.816)"/><path class="a" d="M411.821,143.475a.511.511,0,0,0,.474.324.591.591,0,0,0,.187-.033l1.927-.756a.509.509,0,1,0-.374-.947l-1.927.756A.509.509,0,0,0,411.821,143.475Z" transform="translate(-394.684 -138.67)"/><path class="a" d="M414.358,245.819l-1.927-.756a.509.509,0,0,0-.374.947l1.927.756a.494.494,0,0,0,.187.033.511.511,0,0,0,.474-.324A.506.506,0,0,0,414.358,245.819Z" transform="translate(-394.632 -237.392)"/></g></g></svg>