<svg xmlns="http://www.w3.org/2000/svg" width="13.356" height="15.506" viewBox="0 0 13.356 15.506"><defs><style>.a{fill:#180076;stroke:#180076;stroke-linecap:round;stroke-linejoin:round;stroke-width:0.5px;}</style></defs><g transform="translate(-36.321 0.257)"><g transform="translate(36.571 0)"><path class="a" d="M48.815,7.959a.612.612,0,0,0-.612.612,5.2,5.2,0,1,1-5.2-5.2h.306V5.2a.306.306,0,0,0,.162.27.31.31,0,0,0,.144.036.3.3,0,0,0,.17-.051l3.673-2.449a.306.306,0,0,0,0-.509L43.781.051a.306.306,0,0,0-.476.255V2.142H43a6.428,6.428,0,1,0,6.428,6.428A.612.612,0,0,0,48.815,7.959Z" transform="translate(-36.571 0)"/></g></g></svg>