<svg xmlns="http://www.w3.org/2000/svg" width="32.75" height="32.75" viewBox="0 0 32.75 32.75"><defs><style>.a{fill:#4fa671;stroke:#4fa671;stroke-linecap:round;stroke-linejoin:round;}</style></defs><g transform="translate(16.368 0.715) rotate(45)"><path class="a" d="M13.98,22.147a.463.463,0,0,1-.4-.224L8.558,13.59.225,8.565a.463.463,0,0,1,.081-.833l21.22-7.7a.463.463,0,0,1,.593.593l-7.7,21.22a.463.463,0,0,1-.39.3l-.045,0ZM1.533,8.272l7.6,4.585a.461.461,0,0,1,.157.157l4.584,7.6L20.91,1.237Z"/><path class="a" d="M0,0H18.086V.926H0Z" transform="translate(8.565 12.925) rotate(-45)"/></g></svg>