<svg xmlns="http://www.w3.org/2000/svg" width="15.512" height="16.605" viewBox="0 0 15.512 16.605"><defs><style>.a{fill:#c94040;stroke:#c94040;stroke-linecap:round;stroke-linejoin:round;stroke-width:0.5px;}</style></defs><g transform="translate(0.25 0.25)"><g transform="translate(0 2.418)"><path class="a" d="M306.341,175.1l-1.261-.046-.273,7.464,1.261.046Z" transform="translate(-295.766 -171.967)"/><rect class="a" width="1.262" height="7.464" transform="translate(6.875 3.112)"/><path class="a" d="M159.953,182.513l-.273-7.464-1.261.046.273,7.464Z" transform="translate(-153.982 -171.961)"/><path class="a" d="M17.379,76.867v1.261h1.315l1.043,11.85a.631.631,0,0,0,.628.575h9.02a.631.631,0,0,0,.628-.576l1.043-11.85h1.336V76.867ZM28.807,89.293H20.942L19.96,78.128h9.829Z" transform="translate(-17.379 -76.867)"/></g><g transform="translate(4.394)"><path class="a" d="M162.248,0h-4.121a1.052,1.052,0,0,0-1.051,1.051v2h1.262V1.261h3.7V3.049H163.3v-2A1.052,1.052,0,0,0,162.248,0Z" transform="translate(-157.076)"/></g></g></svg>