<svg xmlns="http://www.w3.org/2000/svg" width="15" height="15" viewBox="0 0 15 15"><defs><style>.a{fill:#b9b9b9;}</style></defs><g transform="translate(-2 -3)"><path class="a" d="M14.474,13.3a.789.789,0,0,1-.011-1.579l1.59-.022V4.579H5.789A.789.789,0,0,1,5.789,3H16.842a.789.789,0,0,1,.789.789v8.684a.789.789,0,0,1-.778.789l-2.368.033Z" transform="translate(-0.632)"/><path class="a" d="M2.789,18.632a.779.779,0,0,1-.3-.06A.789.789,0,0,1,2,17.842V6.789A.789.789,0,0,1,2.789,6H13.842a.789.789,0,0,1,.789.789v7.895a.789.789,0,0,1-.789.789H6.274L3.348,18.4A.789.789,0,0,1,2.789,18.632ZM3.579,7.579v8.357l1.81-1.81a.789.789,0,0,1,.558-.231h7.105V7.579Z" transform="translate(0 -0.632)"/><path class="a" d="M10.947,10.879H7.789a.789.789,0,1,1,0-1.579h3.158a.789.789,0,0,1,0,1.579Z" transform="translate(-1.053 -1.326)"/><path class="a" d="M10.947,14.279H7.789a.789.789,0,1,1,0-1.579h3.158a.789.789,0,0,1,0,1.579Z" transform="translate(-1.053 -2.042)"/></g></svg>