<svg xmlns="http://www.w3.org/2000/svg" width="14" height="16.625" viewBox="0 0 14 16.625"><defs><style>.a{fill:#b9b9b9;}</style></defs><g transform="translate(-4 -3)"><path class="a" d="M11,20A7,7,0,1,1,17.005,9.4a.875.875,0,0,1-1.5.9A5.25,5.25,0,1,0,16.25,13,.875.875,0,0,1,18,13a7.008,7.008,0,0,1-7,7Z" transform="translate(0 -0.375)"/><path class="a" d="M13.625,16a.875.875,0,0,1-.618-.256l-1.75-1.75A.875.875,0,0,1,11,13.375v-3.5a.875.875,0,1,1,1.75,0v3.138l1.494,1.494A.875.875,0,0,1,13.625,16Z" transform="translate(-0.875 -0.75)"/><path class="a" d="M12.625,4.75h-1.75a.875.875,0,1,1,0-1.75h1.75a.875.875,0,1,1,0,1.75Z" transform="translate(-0.75)"/></g></svg>