<svg xmlns="http://www.w3.org/2000/svg" width="12" height="17.143" viewBox="0 0 12 17.143"><defs><style>.a{fill:#b9b9b9;}</style></defs><g transform="translate(-5 -2)"><path class="a" d="M16.143,19.143H5.857A.857.857,0,0,1,5,18.286V5.429a.857.857,0,0,1,.857-.857h4.286V2.857a.857.857,0,1,1,1.714,0V5.429A.857.857,0,0,1,11,6.286H6.714V17.429h8.571V6.286H13.553a.857.857,0,1,1,0-1.714h2.589A.857.857,0,0,1,17,5.429V18.286A.857.857,0,0,1,16.143,19.143Z"/><path class="a" d="M13.421,10.768H9.884A.884.884,0,0,1,9.884,9h3.537a.884.884,0,1,1,0,1.768Z" transform="translate(-0.653 -1.021)"/><path class="a" d="M13.421,13.768H9.884a.884.884,0,0,1,0-1.768h3.537a.884.884,0,0,1,0,1.768Z" transform="translate(-0.653 -1.459)"/><path class="a" d="M13.421,16.768H9.884a.884.884,0,0,1,0-1.768h3.537a.884.884,0,1,1,0,1.768Z" transform="translate(-0.653 -1.896)"/></g></svg>