<svg xmlns="http://www.w3.org/2000/svg" width="16" height="14.4" viewBox="0 0 16 14.4"><defs><style>.a{fill:#b9b9b9;}</style></defs><g transform="translate(-2 -4)"><path class="a" d="M16.6,15.2H3.8a.8.8,0,0,1-.8-.8V4.8A.8.8,0,0,1,3.8,4H16.6a.8.8,0,0,1,.8.8v9.6A.8.8,0,0,1,16.6,15.2Zm-12-1.6H15.8v-8H4.6Z" transform="translate(-0.2)"/><path class="a" d="M14.8,20.8H5.2A3.2,3.2,0,0,1,2,17.6v-.8a.8.8,0,0,1,.8-.8H17.2a.8.8,0,0,1,.8.8v.8A3.2,3.2,0,0,1,14.8,20.8ZM3.6,17.6a1.6,1.6,0,0,0,1.6,1.6h9.6a1.6,1.6,0,0,0,1.6-1.6Z" transform="translate(0 -2.4)"/><path class="a" d="M12.4,18.6H10.8a.8.8,0,1,1,0-1.6h1.6a.8.8,0,0,1,0,1.6Z" transform="translate(-1.6 -2.6)"/></g></svg>