<svg xmlns="http://www.w3.org/2000/svg" width="19" height="19" viewBox="0 0 19 19"><defs><style>.a{fill:#4fa471;}</style></defs><g transform="translate(-2 -3)"><path class="a" d="M17,16.042a1,1,0,0,1-.014-2L19,14.014V5H6A1,1,0,0,1,6,3H20a1,1,0,0,1,1,1V15a1,1,0,0,1-.986,1l-3,.042Z"/><path class="a" d="M3,22a.987.987,0,0,1-.383-.076A1,1,0,0,1,2,21V7A1,1,0,0,1,3,6H17a1,1,0,0,1,1,1V17a1,1,0,0,1-1,1H7.414L3.707,21.707A1,1,0,0,1,3,22ZM4,8V18.586l2.293-2.293A1,1,0,0,1,7,16h9V8Z"/><path class="a" d="M12,11.3H8a1,1,0,1,1,0-2h4a1,1,0,1,1,0,2Z"/><path class="a" d="M12,14.7H8a1,1,0,0,1,0-2h4a1,1,0,0,1,0,2Z"/></g></svg>