<svg xmlns="http://www.w3.org/2000/svg" width="12" height="15.147" viewBox="0 0 12 15.147"><defs><style>.a{fill:#5794d9;}</style></defs><path class="a" d="M10.69,10.245A4.218,4.218,0,0,1,6.383,6.122,4.218,4.218,0,0,1,10.69,2,4.218,4.218,0,0,1,15,6.122a4.221,4.221,0,0,1-4.306,4.123Zm0-6.777A2.716,2.716,0,0,0,7.917,6.123,2.716,2.716,0,0,0,10.69,8.778a2.716,2.716,0,0,0,2.772-2.655A2.719,2.719,0,0,0,10.69,3.468Z" transform="translate(-4.69 -1.999)"/><path class="a" d="M15.32,19.935a.746.746,0,0,1-.757-.734V17.506A1.838,1.838,0,0,0,12.7,15.7H7.455a1.838,1.838,0,0,0-1.864,1.807v.96h7.053a.735.735,0,1,1,0,1.468H4.834a.746.746,0,0,1-.757-.734V17.506a3.332,3.332,0,0,1,3.378-3.275H12.7a3.332,3.332,0,0,1,3.378,3.275V19.2A.746.746,0,0,1,15.32,19.935Z" transform="translate(-4.077 -4.788)"/></svg>