<svg xmlns="http://www.w3.org/2000/svg" width="14.25" height="15" viewBox="0 0 14.25 15"><defs><style>.a{fill:#b9b9b9;}</style></defs><g transform="translate(-3 -2)"><path class="a" d="M13.5,17H3.75A.75.75,0,0,1,3,16.25V2.75A.75.75,0,0,1,3.75,2H13.5a.75.75,0,0,1,.75.75v3a.75.75,0,0,1-1.5,0V3.5H4.5v12h8.25V10.25a.75.75,0,0,1,1.5,0v6A.75.75,0,0,1,13.5,17Z"/><path class="a" d="M12,14.625H9.75a.75.75,0,0,1-.75-.75v-2.25a.75.75,0,0,1,.22-.53L15.595,4.72a.75.75,0,0,1,1.06,0L18.53,6.595A.75.75,0,1,1,17.47,7.655L16.125,6.311,10.5,11.936v1.189h1.19l4.28-4.28A.75.75,0,1,1,17.03,9.905l-4.5,4.5a.75.75,0,0,1-.53.22Z" transform="translate(-1.5 -0.625)"/><path class="a" d="M9,7.5H6.75a.75.75,0,0,1,0-1.5H9A.75.75,0,0,1,9,7.5Z" transform="translate(-0.75 -1)"/><path class="a" d="M8.25,10.5H6.75a.75.75,0,0,1,0-1.5h1.5a.75.75,0,0,1,0,1.5Z" transform="translate(-0.75 -1.75)"/></g></svg>