<svg xmlns="http://www.w3.org/2000/svg" xmlns:xlink="http://www.w3.org/1999/xlink" width="23.007" height="27.576" viewBox="0 0 23.007 27.576"><defs><style>.a{isolation:isolate;}.b{fill:url(#a);}</style><linearGradient id="a" x1="1.206" y1="0.5" x2="-0.405" y2="1.823" gradientUnits="objectBoundingBox"><stop offset="0" stop-color="#5fbb70"/><stop offset="1" stop-color="#154475"/></linearGradient></defs><g class="a"><path class="b" d="M93.673,13.284a6.427,6.427,0,0,0,4.7-1.946,6.427,6.427,0,0,0,1.946-4.7,6.427,6.427,0,0,0-1.946-4.7,6.64,6.64,0,0,0-9.392,0,6.427,6.427,0,0,0-1.946,4.7,6.427,6.427,0,0,0,1.946,4.7A6.429,6.429,0,0,0,93.673,13.284ZM90.12,3.088a5.024,5.024,0,0,1,7.107,0A4.8,4.8,0,0,1,98.7,6.642,4.8,4.8,0,0,1,97.227,10.2a5.024,5.024,0,0,1-7.107,0,4.8,4.8,0,0,1-1.473-3.553A4.8,4.8,0,0,1,90.12,3.088Zm0,0" transform="translate(-82.344 0)"/><path class="b" d="M22.951,255.2a16.406,16.406,0,0,0-.223-1.742,13.729,13.729,0,0,0-.429-1.752,8.654,8.654,0,0,0-.72-1.634,6.159,6.159,0,0,0-1.086-1.415,4.788,4.788,0,0,0-1.56-.98,5.391,5.391,0,0,0-1.992-.36,2.021,2.021,0,0,0-1.08.458c-.324.211-.7.455-1.125.725a6.446,6.446,0,0,1-1.455.641,5.65,5.65,0,0,1-3.559,0,6.424,6.424,0,0,1-1.454-.641c-.418-.267-.8-.511-1.126-.725a2.019,2.019,0,0,0-1.079-.458,5.385,5.385,0,0,0-1.991.361,4.785,4.785,0,0,0-1.56.98,6.161,6.161,0,0,0-1.086,1.415,8.671,8.671,0,0,0-.72,1.634,13.762,13.762,0,0,0-.428,1.752A16.293,16.293,0,0,0,.055,255.2C.019,255.728,0,256.276,0,256.83a4.579,4.579,0,0,0,1.36,3.464,4.9,4.9,0,0,0,3.5,1.278H18.143a4.9,4.9,0,0,0,3.5-1.278,4.577,4.577,0,0,0,1.36-3.464C23.007,256.274,22.988,255.726,22.951,255.2Zm-2.419,3.923a3.3,3.3,0,0,1-2.39.833H4.864a3.3,3.3,0,0,1-2.39-.833,2.99,2.99,0,0,1-.858-2.294c0-.517.017-1.027.051-1.517a14.7,14.7,0,0,1,.2-1.569,12.135,12.135,0,0,1,.377-1.544,7.058,7.058,0,0,1,.586-1.329,4.566,4.566,0,0,1,.8-1.046,3.176,3.176,0,0,1,1.038-.645,3.719,3.719,0,0,1,1.273-.246c.057.03.157.088.321.194.332.216.715.463,1.138.734a8.008,8.008,0,0,0,1.826.816,7.265,7.265,0,0,0,4.553,0,8.015,8.015,0,0,0,1.827-.817c.433-.277.805-.517,1.138-.733.163-.106.264-.164.321-.194a3.721,3.721,0,0,1,1.273.246,3.181,3.181,0,0,1,1.038.645,4.553,4.553,0,0,1,.8,1.046,7.035,7.035,0,0,1,.586,1.328,12.11,12.11,0,0,1,.377,1.544,14.821,14.821,0,0,1,.2,1.57h0c.034.488.052,1,.052,1.516A2.99,2.99,0,0,1,20.533,259.123Zm0,0" transform="translate(0 -233.996)"/></g></svg>