<svg xmlns="http://www.w3.org/2000/svg" width="15" height="15" viewBox="0 0 15 15"><defs><style>.a{fill:#5794d9;}</style></defs><path class="a" d="M14.366,6.405H6.761A.748.748,0,0,1,6,5.671V2.734A.748.748,0,0,1,6.761,2h7.606a.748.748,0,0,1,.761.734V5.671A.748.748,0,0,1,14.366,6.405ZM7.521,4.937h6.084V3.468H7.521Z" transform="translate(-3.063 -2)"/><path class="a" d="M16.25,18.064H2.75A.752.752,0,0,1,2,17.31V13.6a.75.75,0,1,1,1.5,0v2.953h12V13.54a.75.75,0,1,1,1.5,0v3.77A.752.752,0,0,1,16.25,18.064Zm-4.5-4.524H7.25a.752.752,0,0,1-.75-.754v-.754H2.75A.752.752,0,0,1,2,11.278V6.754A.752.752,0,0,1,2.75,6h13.5a.752.752,0,0,1,.75.754v3.77a.75.75,0,1,1-1.5,0V7.508H3.5v3.016h3V9.77a.752.752,0,0,1,.75-.754h4.5a.752.752,0,0,1,.75.754v3.016A.752.752,0,0,1,11.75,13.54ZM8,12.032h3V10.524H8Z" transform="translate(-2 -3.063)"/><path class="a" d="M19.139,13.2H14.734a.734.734,0,0,1,0-1.468h3.671a.734.734,0,1,1,1.468,0v.734A.734.734,0,0,1,19.139,13.2Z" transform="translate(-4.873 -4.225)"/><path class="a" d="M13.139,14.405H8.734A.734.734,0,0,1,8,13.671V10.734A.734.734,0,0,1,8.734,10h4.405a.734.734,0,0,1,.734.734v2.937A.734.734,0,0,1,13.139,14.405ZM9.468,12.937h2.937V11.468H9.468Z" transform="translate(-3.437 -3.946)"/></svg>